<svg width="15" height="17" viewBox="0 0 15 17" fill="none" xmlns="http://www.w3.org/2000/svg">
<g id="Frame" clip-path="url(#clip0_1_289)">
<path id="Vector" d="M11.1007 9.54738L13.4566 6.90638C13.9242 6.39346 13.6344 5.56866 13.0167 5.54481L9.78078 5.46265L8.38103 2.0086C8.1197 1.35619 7.33663 1.44584 7.10948 2.11364L5.98419 5.70142L2.7977 6.28919C2.20849 6.43772 2.00985 7.2779 2.45459 7.74042L5.01948 10.0747L4.41117 13.8195C4.24865 14.5069 4.90532 14.9519 5.4014 14.6114L8.13747 12.4133L10.9761 14.1758C11.5216 14.5052 12.0718 13.9355 11.9578 13.246L11.1007 9.54738Z" fill="url(#paint0_linear_1_289)"/>
</g>
<defs>
<linearGradient id="paint0_linear_1_289" x1="2.24242" y1="6.88013" x2="12.9782" y2="9.41835" gradientUnits="userSpaceOnUse">
<stop offset="0.0656249" stop-color="#FFB803"/>
<stop offset="0.815625" stop-color="#FFBB0C" stop-opacity="0"/>
</linearGradient>
<clipPath id="clip0_1_289">
<rect width="13.4212" height="11.0759" fill="white" transform="matrix(0.230083 -0.973171 0.956853 0.290573 0.694214 13.4277)"/>
</clipPath>
</defs>
</svg>
